<svg width="12" height="14" viewBox="0 0 12 14" fill="none" xmlns="http://www.w3.org/2000/svg">
<path d="M11.4 7.00776C11.4 7.41213 11.2727 7.81806 11.0181 8.14312C10.9704 8.20688 10.7477 8.46973 10.5727 8.64081L10.4772 8.73413C9.14088 10.151 5.81588 12.2817 4.12951 12.9645C4.12951 12.9801 3.12724 13.386 2.64997 13.4H2.58633C1.85451 13.4 1.17042 12.9972 0.820421 12.3439C0.629512 11.9847 0.454512 10.9426 0.438602 10.9286C0.295421 9.99391 0.199966 8.56305 0.199966 6.99221C0.199966 5.34516 0.295421 3.85053 0.470421 2.93291C0.470421 2.91736 0.645421 2.0775 0.756785 1.79755C0.931785 1.39473 1.24997 1.05102 1.64769 0.833276C1.96588 0.679303 2.29997 0.599983 2.64997 0.599983C3.01588 0.617091 3.69997 0.848829 3.97042 0.957699C5.75224 1.64202 9.15678 3.88164 10.4613 5.25029C10.6841 5.46803 10.9227 5.73398 10.9863 5.79464C11.2568 6.1368 11.4 6.55673 11.4 7.00776Z" fill="white"/>
</svg>
