<svg width="23" height="23" viewBox="0 0 23 23" fill="none" xmlns="http://www.w3.org/2000/svg">
<path d="M22.1058 0.900586C21.5433 0.325711 20.7108 0.113086 19.9346 0.338086L1.83335 5.56821C1.01435 5.79546 0.433848 6.44459 0.277473 7.26809C0.117723 8.10734 0.675723 9.17384 1.40472 9.61934L7.0646 13.0753C7.6451 13.4308 8.39435 13.342 8.87472 12.8605L15.3558 6.37934C15.6821 6.04071 16.2221 6.04071 16.5483 6.37934C16.8746 6.70446 16.8746 7.23434 16.5483 7.57184L10.056 14.053C9.57447 14.5345 9.48447 15.2815 9.83885 15.8631L13.2971 21.5443C13.7021 22.2182 14.3996 22.6018 15.1646 22.6018C15.2546 22.6018 15.3558 22.6018 15.4458 22.5895C16.3233 22.4781 17.0208 21.8807 17.2796 21.037L22.6458 3.07184C22.8821 2.30684 22.6683 1.47434 22.1058 0.900586Z" fill="white"/>
<path opacity="0.4" d="M8.63285 19.535C8.96135 19.8646 8.96135 20.399 8.63285 20.7286L7.0961 22.2642C6.93185 22.4296 6.71585 22.5117 6.49985 22.5117C6.28385 22.5117 6.06785 22.4296 5.9036 22.2642C5.57397 21.9346 5.57397 21.4013 5.9036 21.0717L7.43922 19.535C7.76885 19.2065 8.30322 19.2065 8.63285 19.535ZM7.75118 15.2735C8.07968 15.6031 8.07968 16.1375 7.75118 16.4671L6.21443 18.0027C6.05018 18.1681 5.83418 18.2502 5.61818 18.2502C5.40218 18.2502 5.18618 18.1681 5.02193 18.0027C4.69231 17.6731 4.69231 17.1398 5.02193 16.8102L6.55756 15.2735C6.88718 14.945 7.42156 14.945 7.75118 15.2735ZM3.51983 13.932C3.84833 14.2616 3.84833 14.796 3.51983 15.1256L1.98308 16.6613C1.81883 16.8266 1.60283 16.9088 1.38683 16.9088C1.17083 16.9088 0.954834 16.8266 0.790584 16.6613C0.460959 16.3316 0.460959 15.7984 0.790584 15.4688L2.32621 13.932C2.65583 13.6035 3.19021 13.6035 3.51983 13.932Z" fill="white"/>
</svg>
